<svg xmlns="http://www.w3.org/2000/svg" xmlns:xlink="http://www.w3.org/1999/xlink" width="349.232" height="902" viewBox="0 0 349.232 902">
  <defs>
    <clipPath id="clip-path">
      <rect id="Rechteck_178" data-name="Rechteck 178" width="349.232" height="902" fill="none"/>
    </clipPath>
  </defs>
  <g id="Gruppe_11" data-name="Gruppe 11" transform="translate(-4.768 -6)">
    <g id="Gruppe_9" data-name="Gruppe 9" transform="translate(4.768 6)">
      <g id="Gruppe_8" data-name="Gruppe 8" transform="translate(0 0)" clip-path="url(#clip-path)">
        <path id="Pfad_20" data-name="Pfad 20" d="M197.06,29.889S184.423,6.421,220.528,1.005,280.1,35.3,278.295,46.136s-1.805,36.1-34.3,66.793c0,0-21.663,25.273,14.442,34.3,0,0,43.325,30.689,46.936,72.209s-3.61,167.886-36.1,211.211c0,0-10.831,18.052-54.157,30.689,0,0,0,5.416-7.221,12.637,21.052-21.053,10.97-15.519-28.884,34.3,0,0,59.572-9.026,75.819-25.273,0,0,41.52-18.052,50.546,14.442V587.7s-4.571,33.135-26.656,35.521-16.669-33.716-14.864-35.521c0,0-16.247-14.442-16.247-16.247,0,0-75.819,25.273-84.845,28.884s-12.637,202.185-12.637,214.822-3.61,46.761,0,58.583c0,0,3.61,8.21-34.3,10.015S52.642,896.4,52.642,896.4,12.927,909.033,2.1,890.98,39.1,864.8,39.1,864.8s25.273-14.442,34.3-34.3,7.221-30.689,7.221-30.689-3.61-7.221,7.221-19.857S69.792,613.879,73.4,606.658c0,0-84.845,0-43.325-70.4S71.306,484.087,78.672,450.6c0,0-5.269-2.8-17.906,6.226s-7.221-14.442,1.805-34.3S73.4,373.784,86.039,343.1c0,0,21.663-117.34,41.52-139,0,0,1.805-43.325,45.13-59.572,0,0,9.026-16.247,0-43.325S188.936,30.791,197.06,29.889Z" transform="translate(42.112 0.401)" fill="none" stroke="#000" stroke-miterlimit="10" stroke-width="1"/>
        <path id="Pfad_21" data-name="Pfad 21" d="M69.606,126.28S85.853,232.788,40.722,310.413c0,0,5.416,5.416-10.831,12.637" transform="translate(222.82 101.682)" fill="none" stroke="#000" stroke-miterlimit="10" stroke-width="1"/>
        <path id="Pfad_22" data-name="Pfad 22" d="M256.157,161.887c-18.052,4.444-63.183,23.121-63.183,23.121s-6.665,3.849-20.238-.634c-7.8-2.576-13.925-9.851-16.843-19.117a61.584,61.584,0,0,0-6.185-13.862,74.136,74.136,0,0,1-3.1-6.771,4.411,4.411,0,0,0-3.378-2.906c-1.163-.119-2.132.357-1.356,2.742,1.549,4.769,4.423,11.077,5.973,12.983s1.827,4.224-.135,4.206-7.389-12.42-10.488-18.143-4.65-.955-4.65.953,9.3,17.171,9.3,19.079-1.247,2.793-3.053.57c-.984-1.211-6-12.223-8.253-17.213a7.2,7.2,0,0,0-4.2-4.105c-1.551-.478-3.576-.179-3.1,2.623.451,2.654,7.465,12.644,10.194,18.209.744,1.515,1.005,3.392-.092,4.535-.294.305-3.356-3.777-3.578-4.049-.774-.955-9.026-15.554-10.4-18.695-.735-1.681-6.2-2.863-4.65,2.861s11.438,18.056,13.243,22.5c.052.128-6.795-6.665-10.831-6.665-3.61,0-1.805,13.33,18.052,20l8.755,8.62a58.267,58.267,0,0,0,20.78,13.4c5.085,1.858,10.55,3.7,13.815,4.15,0,0,54.1,2.446,66.768,2.713" transform="translate(-113.565 113.357)" fill="none" stroke="#000" stroke-miterlimit="10" stroke-width="1"/>
        <path id="Pfad_23" data-name="Pfad 23" d="M14.469,304.167a50.9,50.9,0,0,1,13.017,29.088" transform="translate(295.626 244.921)" fill="none" stroke="#000" stroke-miterlimit="10" stroke-width="1"/>
        <path id="Pfad_24" data-name="Pfad 24" d="M154.183,460.038s-5.416,27.515-39.715,45.568" transform="translate(-11.59 370.432)" fill="none" stroke="#000" stroke-miterlimit="10" stroke-width="1"/>
        <path id="Pfad_25" data-name="Pfad 25" d="M87.215,281.78s-9.929,65.891-16.247,92.066" transform="translate(133.905 226.894)" fill="none" stroke="#000" stroke-miterlimit="10" stroke-width="1"/>
      </g>
    </g>
  </g>
</svg>
