<svg xmlns="http://www.w3.org/2000/svg" xmlns:xlink="http://www.w3.org/1999/xlink" viewBox="0 0 307.73 145.83"><defs><style>.cls-1{fill:#c21e41;}.cls-1,.cls-10,.cls-11,.cls-12,.cls-13,.cls-14,.cls-15,.cls-16,.cls-17,.cls-18,.cls-2,.cls-3,.cls-4,.cls-5,.cls-6,.cls-7,.cls-8,.cls-9{fill-rule:evenodd;}.cls-2,.cls-7{fill:#fef163;}.cls-12,.cls-18,.cls-2,.cls-3{opacity:0.2;}.cls-3,.cls-8{fill:#430104;}.cls-4{fill:#d21140;}.cls-5{fill:#e91a39;}.cls-6{fill:url(#linear-gradient);}.cls-7,.cls-8{opacity:0.15;}.cls-9{fill:url(#linear-gradient-2);}.cls-10{fill:url(#linear-gradient-3);}.cls-11{fill:url(#linear-gradient-4);}.cls-12{fill:#5b0105;}.cls-13{fill:url(#linear-gradient-5);}.cls-14{fill:url(#linear-gradient-6);}.cls-15{fill:url(#linear-gradient-7);}.cls-16{fill:url(#linear-gradient-8);}.cls-17{fill:url(#linear-gradient-9);}.cls-18{fill:#e60040;}.cls-19{font-size:26.92px;font-family:FuturaPT-Bold, Futura PT;font-weight:700;letter-spacing:0.05em;}.cls-19,.cls-23{fill:#fff;}.cls-20{letter-spacing:0.03em;}.cls-21{letter-spacing:0.01em;}.cls-22{letter-spacing:0.05em;}.cls-23{font-size:8.85px;font-family:FuturaPT-Demi, Futura PT;font-weight:300;letter-spacing:0.18em;}.cls-24{letter-spacing:0.2em;}.cls-25{letter-spacing:0.17em;}.cls-26{letter-spacing:0.17em;}.cls-27{letter-spacing:0.18em;}</style><linearGradient id="linear-gradient" x1="126.01" y1="108.39" x2="127.26" y2="-50.88" gradientUnits="userSpaceOnUse"><stop offset="0" stop-color="#e60040"/><stop offset="1" stop-color="#ff0"/></linearGradient><linearGradient id="linear-gradient-2" x1="110.85" y1="88.1" x2="112.09" y2="-71.17" xlink:href="#linear-gradient"/><linearGradient id="linear-gradient-3" x1="143.64" y1="133.44" x2="144.88" y2="-25.82" xlink:href="#linear-gradient"/><linearGradient id="linear-gradient-4" x1="23.2" y1="63.94" x2="239.69" y2="83.57" xlink:href="#linear-gradient"/><linearGradient id="linear-gradient-5" x1="5.93" y1="67.62" x2="233.48" y2="91.12" xlink:href="#linear-gradient"/><linearGradient id="linear-gradient-6" x1="-28.72" y1="69.84" x2="248.06" y2="95" xlink:href="#linear-gradient"/><linearGradient id="linear-gradient-7" x1="-39.3" y1="68.88" x2="238.86" y2="94.75" gradientUnits="userSpaceOnUse"><stop offset="0.03" stop-color="#e60040"/><stop offset="1" stop-color="#ff0"/></linearGradient><linearGradient id="linear-gradient-8" x1="-50.61" y1="59.87" x2="219.8" y2="92.22" xlink:href="#linear-gradient"/><linearGradient id="linear-gradient-9" x1="-74.41" y1="58.13" x2="204.94" y2="80.69" xlink:href="#linear-gradient"/></defs><g id="Icon"><path class="cls-1" d="M71.31,50.85h-.43s-11.69,70,53,107.35c0,0-20.84-29.85-24-73.2C72.29,74.49,71.13,55.67,71.31,50.85Z" transform="translate(-63.95 -12.36)"/><path class="cls-2" d="M91.14,81c-2.13,3.6-2.89,8.27-1.73,14.2,8,40.76,34.43,63,34.43,63S103,128.34,99.85,85A64.53,64.53,0,0,1,91.14,81Z" transform="translate(-63.95 -12.36)"/><path class="cls-3" d="M91.39,87.57c-7.23-5.89-10.8,6.36-12.43,20.89a100.62,100.62,0,0,0,15.1,24.87C88.52,107.77,91.39,87.57,91.39,87.57Z" transform="translate(-63.95 -12.36)"/><path class="cls-4" d="M71.31,50.85h-.43S56.77,105,89.76,145.66c0,0-7.36-31,.57-65.17C72,69.8,71.15,55,71.31,50.85Z" transform="translate(-63.95 -12.36)"/><path class="cls-2" d="M78.36,79.57A40.64,40.64,0,0,0,78.81,71a32.71,32.71,0,0,1-4.9-7.75,9.57,9.57,0,0,0-5.25,1c-2,18.63-1.75,53.25,21.1,81.43C89.76,145.66,73.24,114.9,78.36,79.57Z" transform="translate(-63.95 -12.36)"/><path class="cls-3" d="M77,68.73c-2.46-.26-5.64,1-9,3.14a124.3,124.3,0,0,0,3.71,37.89A159,159,0,0,1,81.6,74h0A36.34,36.34,0,0,1,77,68.73Z" transform="translate(-63.95 -12.36)"/><path class="cls-5" d="M71.32,50.57l-.44.27C65.13,61.54,60.29,87.16,67.77,110c0,0,1.56-19.58,13.83-36C71.43,64.25,71.16,53.63,71.32,50.57Z" transform="translate(-63.95 -12.36)"/><path class="cls-2" d="M71.32,50.57l-.44.27C65.13,61.54,60.29,87.16,67.77,110c0,0-3.69-25.73,6.33-46.35A28.41,28.41,0,0,1,71.32,50.57Z" transform="translate(-63.95 -12.36)"/><path class="cls-3" d="M108,54.84l-6.38-8.14s-16-5.06-30.75,4.14a37.94,37.94,0,0,0-1.73,3.74C68,57.94,63.36,75,72.05,92h0a50.22,50.22,0,0,0,14.67,17.14h0a77.49,77.49,0,0,0,19.63,10.56,154.54,154.54,0,0,1-6-61.69A53.68,53.68,0,0,1,108,54.84Z" transform="translate(-63.95 -12.36)"/><path class="cls-6" d="M138.07,17a60.7,60.7,0,0,0-40,4.51C139.81,17.2,151.4,52.1,151.22,63,154.24,58.84,162.67,30,138.07,17Z" transform="translate(-63.95 -12.36)"/><path class="cls-7" d="M138.07,17a60.7,60.7,0,0,0-40,4.51c12-4.23,41.59-6.85,55.85,15.12C152.07,29.27,147.5,22,138.07,17Z" transform="translate(-63.95 -12.36)"/><path class="cls-8" d="M138.07,17a54.07,54.07,0,0,0-12.67-1.55c25.95,6.69,30,32,25.82,47.57.12-.17.23-.35.34-.53C154.79,56.84,161.81,29.5,138.07,17Z" transform="translate(-63.95 -12.36)"/><path class="cls-9" d="M105.23,21.15C86.17,26.28,74.29,42.82,70.88,50.84L111.48,54c25.51-18.91,38.31,3,39.74,9.06C153.15,37.8,128.8,18.59,105.23,21.15Z" transform="translate(-63.95 -12.36)"/><path class="cls-8" d="M79.61,37.65a52,52,0,0,0-8.73,13.19L111.48,54c25.51-18.91,38.31,3,39.74,9.06C144.53,29.28,99.77,19.68,79.61,37.65Z" transform="translate(-63.95 -12.36)"/><path class="cls-8" d="M74.74,43.93a42.44,42.44,0,0,0-3.86,6.91L111.48,54c8.33-6.17,15.31-8,21-7.45C106.62,21.11,80.36,36.86,74.74,43.93Z" transform="translate(-63.95 -12.36)"/><path class="cls-8" d="M105.23,21.15a46.42,46.42,0,0,0-9.11,3.52c41.08-6.52,54.52,24.57,55.1,38.35C153.15,37.8,128.8,18.59,105.23,21.15Z" transform="translate(-63.95 -12.36)"/><path class="cls-10" d="M128.06,12.71C155,21.15,156.94,47.52,151.22,63,174.33,33.76,151.77,9.08,128.06,12.71Z" transform="translate(-63.95 -12.36)"/><path class="cls-2" d="M128.54,12.65,129,13a36.87,36.87,0,0,1,15.88,10C155.21,25.9,161.26,36.48,159,49.5,167.05,26.81,148.31,9.93,128.54,12.65Z" transform="translate(-63.95 -12.36)"/><path class="cls-11" d="M74.81,45.05l-.41.49c-11.14,14-8.32,32.09,3.51,46.94a48.44,48.44,0,0,1,1.92-18.83c.11-.35,1-1.36,1.06-1.74C82.23,66,84.41,46.5,74.81,45.05Z" transform="translate(-63.95 -12.36)"/><path class="cls-2" d="M74.92,45.07c6.06,10-6.51,28.18,3,47.41a48.44,48.44,0,0,1,1.92-18.83c.11-.35,1-1.36,1.06-1.74C82.22,66,84.39,46.65,74.92,45.07Z" transform="translate(-63.95 -12.36)"/><path class="cls-12" d="M74.92,45.07h0c7.82,5,6.21,15.55,3.57,24.54-2.74,9.28-3.61,13.25-.57,22.87C77,85,78.53,79.41,80.12,72.29,82.31,62.53,84.12,49.82,74.92,45.07Z" transform="translate(-63.95 -12.36)"/><path class="cls-13" d="M92.58,66.48C92.37,56,87.07,47.43,74.9,45.05c9.23,4.75,7.41,17.47,5.22,27.24-3.47,15.55-3,24.42,12.91,34a61.45,61.45,0,0,1-3.51-20.14C89.36,80.45,92.71,73.09,92.58,66.48Z" transform="translate(-63.95 -12.36)"/><path class="cls-2" d="M92.58,66.48C92.37,56,87.07,47.43,74.9,45.05l0,0c4.69,1.05,8.35,5.31,9.5,12.12s-.66,13-2.09,27.37C81,98.53,92.29,105.85,93,106.29h0a61.45,61.45,0,0,1-3.51-20.14C89.36,80.45,92.71,73.09,92.58,66.48Z" transform="translate(-63.95 -12.36)"/><path class="cls-12" d="M89.5,67.14C89.29,56.71,87.08,47.49,75,45.08h-.08l.09,0C86.88,48.5,88.19,57.88,87.68,68.3c-.28,5.67-.86,11.36-1.25,16.4-.7,9.14,1.22,16.24,6.6,21.61a61.45,61.45,0,0,1-3.51-20.14C89.36,80.45,89.63,73.75,89.5,67.14Z" transform="translate(-63.95 -12.36)"/><path class="cls-14" d="M101.87,62.74C99.27,50.11,88,43.82,74.84,45c12.22,2.35,14.45,11.62,14.66,22.1.17,8.88-.37,17.93.37,24.53,1.67,14.85,14.17,22.59,27.52,26.23a67.39,67.39,0,0,1-11.46-22.37C102.64,85.45,103.81,72.14,101.87,62.74Z" transform="translate(-63.95 -12.36)"/><path class="cls-2" d="M101.87,62.74C99.27,50.11,88,43.82,74.84,45l.57.12c12.25.61,17.37,9.19,18.33,21.22.4,5.06.68,11.76,1.26,20.89,1.54,24,22.39,30.63,22.39,30.63a67.39,67.39,0,0,1-11.46-22.37C102.64,85.45,103.81,72.14,101.87,62.74Z" transform="translate(-63.95 -12.36)"/><path class="cls-12" d="M98.58,64.05C96,51.55,88.16,44,75.23,45l-.29.05h0c13.14-.2,20.5,8,22.16,20.71,1.21,9.26,2.41,21,4.81,31.07,2.64,11.07,8.62,16.75,15.43,21.05a67.39,67.39,0,0,1-11.46-22.37C102.64,85.45,100.51,73.45,98.58,64.05Z" transform="translate(-63.95 -12.36)"/><path class="cls-15" d="M128.11,103h0c-5.77-9.69-8.41-24.37-13.25-36.44-6.7-16.74-19-27.21-40-21.49C88,43.82,96,51.42,98.58,64.05s5.58,30.22,11.34,41.27C116.52,118,129,123,144.79,122.85,140.94,119.44,133.08,112.46,128.11,103Z" transform="translate(-63.95 -12.36)"/><path class="cls-2" d="M128.11,103h0c-5.77-9.69-8.41-24.37-13.25-36.44-6.7-16.74-19-27.21-40-21.49l.4,0C86.8,42.3,97.12,47.5,102,58.11c10.1,22.11,9,58.73,42.81,64.74C140.94,119.44,133.08,112.46,128.11,103Z" transform="translate(-63.95 -12.36)"/><path class="cls-12" d="M128.11,103h0c-5.77-9.69-10.61-22.61-15.44-34.68C106,51.58,95.94,39.37,75,45l0,0,.25,0c21.19-4.14,30.36,8.69,35.92,25.75,3.29,10.1,6.55,20.75,10.41,29.79,4.94,11.56,14.35,19.43,23.3,22.3C140.94,119.44,133.08,112.46,128.11,103Z" transform="translate(-63.95 -12.36)"/><path class="cls-16" d="M150.08,101.09c-10.2-11.25-16.14-28.32-25-42.24C113,39.64,92,33.53,74.8,45.05c21.09-5.74,31.15,6.49,37.87,23.24,5.44,13.59,10.89,28.26,17.66,38.18,11.86,17.36,26.79,18.85,45.89,13.67C167.05,116.77,155.88,108.8,150.08,101.09Z" transform="translate(-63.95 -12.36)"/><path class="cls-2" d="M150.08,101.09c-10.2-11.25-18.56-26.78-27.38-40.7C110.54,41.18,92,33.53,74.8,45.05l-.15.17L75,45c14.83-6.26,29.58-2.06,39.06,13.65,16.77,27.79,25.46,64.05,62.13,61.5C167.05,116.77,155.88,108.8,150.08,101.09Z" transform="translate(-63.95 -12.36)"/><path class="cls-12" d="M150.08,101.09c-10.2-11.25-18.56-26.78-27.38-40.7C110.57,41.23,92.06,33.57,75,45l-.07.08h.05c17.75-10.44,35.82-1.74,46.85,18.09,7.6,13.68,14.71,28.77,23.57,40.37,6.62,8.66,19.54,15.85,30.87,16.66C167.05,116.77,155.88,108.8,150.08,101.09Z" transform="translate(-63.95 -12.36)"/><path class="cls-17" d="M126.54,46.79C112.93,33.62,88,29.17,74.81,45,92,33.53,110.54,41.18,122.7,60.39c8.37,13.21,16.33,27.87,25.84,39,11.65,13.56,29,21.68,53.39,13.17C163.54,99.75,152.81,72.23,126.54,46.79Z" transform="translate(-63.95 -12.36)"/><path class="cls-2" d="M126.54,46.79C112.93,33.62,88,29.17,74.81,45,86.46,34.4,103.6,34.76,115,43.33a70.8,70.8,0,0,1,6,5.12c25.49,24.07,33.7,63.6,81,64.06C163.54,99.75,152.81,72.23,126.54,46.79Z" transform="translate(-63.95 -12.36)"/><path class="cls-18" d="M143.08,91.64h0a115.82,115.82,0,0,1-21.3-1.12h0C111.11,89,99.57,85.75,90.2,80.34h0a46,46,0,0,1-9.87-7.49h0c-6.56-6.72-9.72-15.22-7.24-25.53-9.57,13.75-6.51,30.93,4.82,45.16,0,0-1.13-10.08,1.92-18.84C76.69,88.36,77.59,97,93,106.31a61.4,61.4,0,0,1-3.51-20.14c.06,2,.17,3.81.35,5.5,1.67,14.85,14.17,22.59,27.52,26.23a67.48,67.48,0,0,1-11.46-22.37,66.28,66.28,0,0,0,4,9.79C116.52,118,129,123,144.79,122.85c-3.85-3.41-11.71-10.39-16.68-19.88,11.83,19.88,26.67,23,48.11,17.17-9.17-3.37-20.34-11.34-26.14-19l-.61-.69c11.63,12.92,28.71,20.4,52.46,12.11-17-5.65-28.6-14.21-38.51-24.2A77.63,77.63,0,0,1,143.08,91.64Z" transform="translate(-63.95 -12.36)"/></g><g id="Logotext"><text class="cls-19" transform="translate(105.39 59.57) scale(0.99 1)">PHENI<tspan class="cls-20" x="85.96" y="0">X</tspan><tspan class="cls-21" x="105.78" y="0">G</tspan><tspan class="cls-22" x="126.94" y="0">AMES</tspan></text><text class="cls-23" transform="translate(106.66 70.57) scale(0.99 1)">Das Net<tspan class="cls-24" x="41.66" y="0">z</tspan><tspan class="cls-25" x="47.72" y="0">w</tspan><tspan x="56.23" y="0">erk mit dem P</tspan><tspan class="cls-26" x="128.33" y="0">h</tspan><tspan class="cls-27" x="134.55" y="0">enix</tspan></text><text x="-63.95" y="-12.36"/><text x="-63.95" y="-12.36"/><text x="-63.95" y="-12.36"/></g></svg>