<svg xmlns="http://www.w3.org/2000/svg" xmlns:xlink="http://www.w3.org/1999/xlink" width="11.312" height="16.4" viewBox="0 0 11.312 16.4"><defs><style>.a,.d{fill-rule:evenodd;}.a{fill:url(#a);}.b{fill:url(#b);}.c{fill:url(#d);}.d{fill:url(#h);}</style><linearGradient id="a" y1="0.5" x2="1" y2="0.5" gradientUnits="objectBoundingBox"><stop offset="0" stop-color="#fcd635"/><stop offset="1" stop-color="#f7a928"/></linearGradient><linearGradient id="b" y1="0.5" x2="1" y2="0.5" gradientUnits="objectBoundingBox"><stop offset="0" stop-color="#cad1d8"/><stop offset="1" stop-color="#babdc1"/></linearGradient><linearGradient id="d" y1="0.333" x2="1" y2="0.333" gradientUnits="objectBoundingBox"><stop offset="0" stop-color="#485960"/><stop offset="1" stop-color="#3d4e55"/></linearGradient><linearGradient id="h" y1="0.5" x2="1.002" y2="0.5" gradientUnits="objectBoundingBox"><stop offset="0" stop-color="#f6a320"/><stop offset="1" stop-color="#f47e1f"/></linearGradient></defs><g transform="translate(-3 -1037.862)"><g transform="translate(3 1037.862)"><path class="a" d="M130.156,130a5.654,5.654,0,0,0-2.262,10.837v4.434a.564.564,0,0,0,.566.566h3.394a.564.564,0,0,0,.566-.566v-4.439A5.652,5.652,0,0,0,130.156,130Z" transform="translate(-124.5 -130)"/><circle class="b" cx="0.566" cy="0.566" r="0.566" transform="translate(4.186 15.269)"/><circle class="b" cx="0.566" cy="0.566" r="0.566" transform="translate(5.996 15.269)"/><rect class="c" width="4.448" height="3.336" rx="0.5" transform="translate(3.336 12.231)"/><rect class="b" width="5.656" height="1.131" rx="0.417" transform="translate(2.828 12.441)"/><rect class="b" width="5.656" height="1.131" rx="0.417" transform="translate(2.828 13.572)"/><rect class="b" width="5.656" height="1.131" rx="0.417" transform="translate(2.828 11.31)"/><path class="d" d="M130.025,1167.36a4.533,4.533,0,0,0-4.525,4.525.566.566,0,0,0,1.131,0,3.385,3.385,0,0,1,3.394-3.394.566.566,0,1,0,0-1.131Z" transform="translate(-124.369 -1166.231)"/></g></g></svg>