<svg xmlns="http://www.w3.org/2000/svg" xmlns:xlink="http://www.w3.org/1999/xlink" viewBox="0 0 137.98 145.83"><defs><style>.cls-1{fill:#c21e41;}.cls-1,.cls-10,.cls-11,.cls-12,.cls-13,.cls-14,.cls-15,.cls-16,.cls-17,.cls-18,.cls-2,.cls-3,.cls-4,.cls-5,.cls-6,.cls-7,.cls-8,.cls-9{fill-rule:evenodd;}.cls-2,.cls-7{fill:#fef163;}.cls-12,.cls-18,.cls-2,.cls-3{opacity:0.2;}.cls-3,.cls-8{fill:#430104;}.cls-4{fill:#d21140;}.cls-5{fill:#e91a39;}.cls-6{fill:url(#linear-gradient);}.cls-7,.cls-8{opacity:0.15;}.cls-9{fill:url(#linear-gradient-2);}.cls-10{fill:url(#linear-gradient-3);}.cls-11{fill:url(#linear-gradient-4);}.cls-12{fill:#5b0105;}.cls-13{fill:url(#linear-gradient-5);}.cls-14{fill:url(#linear-gradient-6);}.cls-15{fill:url(#linear-gradient-7);}.cls-16{fill:url(#linear-gradient-8);}.cls-17{fill:url(#linear-gradient-9);}.cls-18{fill:#e60040;}</style><linearGradient id="linear-gradient" x1="71.37" y1="109.96" x2="72.61" y2="-49.3" gradientUnits="userSpaceOnUse"><stop offset="0" stop-color="#e60040"/><stop offset="1" stop-color="#ff0"/></linearGradient><linearGradient id="linear-gradient-2" x1="56.21" y1="89.67" x2="57.45" y2="-69.59" xlink:href="#linear-gradient"/><linearGradient id="linear-gradient-3" x1="88.99" y1="135.01" x2="90.24" y2="-24.25" xlink:href="#linear-gradient"/><linearGradient id="linear-gradient-4" x1="-31.44" y1="65.52" x2="185.05" y2="85.15" xlink:href="#linear-gradient"/><linearGradient id="linear-gradient-5" x1="-48.72" y1="69.2" x2="178.83" y2="92.7" xlink:href="#linear-gradient"/><linearGradient id="linear-gradient-6" x1="-83.36" y1="71.41" x2="193.42" y2="96.57" xlink:href="#linear-gradient"/><linearGradient id="linear-gradient-7" x1="-93.94" y1="70.45" x2="184.21" y2="96.33" gradientUnits="userSpaceOnUse"><stop offset="0.03" stop-color="#e60040"/><stop offset="1" stop-color="#ff0"/></linearGradient><linearGradient id="linear-gradient-8" x1="-105.25" y1="61.45" x2="165.16" y2="93.8" xlink:href="#linear-gradient"/><linearGradient id="linear-gradient-9" x1="-129.05" y1="59.71" x2="150.29" y2="82.27" xlink:href="#linear-gradient"/></defs><g id="Icon"><path class="cls-1" d="M16.66,52.43h-.43s-11.68,70,53,107.34c0,0-20.85-29.84-24-73.19C17.65,76.07,16.49,57.25,16.66,52.43Z" transform="translate(-9.3 -13.93)"/><path class="cls-2" d="M36.5,82.53c-2.14,3.59-2.89,8.27-1.73,14.2,7.94,40.76,34.43,63,34.43,63s-20.85-29.84-24-73.19A65.78,65.78,0,0,1,36.5,82.53Z" transform="translate(-9.3 -13.93)"/><path class="cls-3" d="M36.75,89.15C29.52,83.26,26,95.51,24.31,110a101.21,101.21,0,0,0,15.11,24.88C33.87,109.34,36.75,89.15,36.75,89.15Z" transform="translate(-9.3 -13.93)"/><path class="cls-4" d="M16.66,52.43h-.43s-14.1,54.13,18.88,94.81c0,0-7.36-31,.58-65.16C17.37,71.38,16.51,56.61,16.66,52.43Z" transform="translate(-9.3 -13.93)"/><path class="cls-2" d="M23.71,81.14a39.24,39.24,0,0,0,.45-8.55,33.44,33.44,0,0,1-4.9-7.75,9.57,9.57,0,0,0-5.25,1c-2,18.62-1.74,53.24,21.1,81.42C35.11,147.23,18.6,116.47,23.71,81.14Z" transform="translate(-9.3 -13.93)"/><path class="cls-3" d="M22.4,70.3c-2.46-.26-5.64,1-9,3.14a124.31,124.31,0,0,0,3.72,37.89A158.47,158.47,0,0,1,27,75.57h0A36.24,36.24,0,0,1,22.4,70.3Z" transform="translate(-9.3 -13.93)"/><path class="cls-5" d="M16.68,52.15l-.45.27c-5.75,10.7-10.58,36.31-3.11,59.19,0,0,1.57-19.58,13.83-36C16.79,65.82,16.52,55.21,16.68,52.15Z" transform="translate(-9.3 -13.93)"/><path class="cls-2" d="M16.68,52.15l-.45.27c-5.75,10.7-10.58,36.31-3.11,59.19,0,0-3.69-25.73,6.33-46.35A28.24,28.24,0,0,1,16.68,52.15Z" transform="translate(-9.3 -13.93)"/><path class="cls-3" d="M53.36,56.41,47,48.27s-16.06-5.05-30.76,4.15a39.29,39.29,0,0,0-1.72,3.74c-1.13,3.35-5.79,20.45,2.89,37.43h0a50.22,50.22,0,0,0,14.67,17.14h0a78.12,78.12,0,0,0,19.63,10.56,154.25,154.25,0,0,1-6-61.7A54.23,54.23,0,0,1,53.36,56.41Z" transform="translate(-9.3 -13.93)"/><path class="cls-6" d="M83.42,18.58c-11.37-2.89-27-2-40,4.51C85.17,18.77,96.75,53.68,96.58,64.6,99.6,60.41,108,31.53,83.42,18.58Z" transform="translate(-9.3 -13.93)"/><path class="cls-7" d="M83.42,18.58c-11.37-2.89-27-2-40,4.51,12-4.24,41.6-6.86,55.86,15.12C97.43,30.85,92.86,23.54,83.42,18.58Z" transform="translate(-9.3 -13.93)"/><path class="cls-8" d="M83.42,18.58A54.45,54.45,0,0,0,70.75,17c26,6.7,30,32,25.83,47.58l.33-.53C100.15,58.41,107.17,31.07,83.42,18.58Z" transform="translate(-9.3 -13.93)"/><path class="cls-9" d="M50.58,22.72c-19,5.13-30.94,21.67-34.35,29.7l40.6,3.12c25.51-18.91,38.32,3,39.75,9.06C98.51,39.37,74.16,20.16,50.58,22.72Z" transform="translate(-9.3 -13.93)"/><path class="cls-8" d="M25,39.22a52,52,0,0,0-8.74,13.2l40.6,3.12c25.51-18.91,38.32,3,39.75,9.06C89.89,30.85,45.13,21.25,25,39.22Z" transform="translate(-9.3 -13.93)"/><path class="cls-8" d="M20.1,45.5a43.41,43.41,0,0,0-3.87,6.92l40.6,3.12c8.34-6.18,15.31-8,21-7.45C52,22.69,25.72,38.44,20.1,45.5Z" transform="translate(-9.3 -13.93)"/><path class="cls-8" d="M50.58,22.72a47.56,47.56,0,0,0-9.11,3.52C82.56,19.72,96,50.81,96.58,64.6,98.51,39.37,74.16,20.16,50.58,22.72Z" transform="translate(-9.3 -13.93)"/><path class="cls-10" d="M73.42,14.29c26.91,8.44,28.88,34.8,23.16,50.31C119.68,35.33,97.13,10.65,73.42,14.29Z" transform="translate(-9.3 -13.93)"/><path class="cls-2" d="M73.9,14.22l.41.36a36.84,36.84,0,0,1,15.88,10c10.38,2.9,16.43,13.48,14.13,26.5C112.41,28.38,93.66,11.51,73.9,14.22Z" transform="translate(-9.3 -13.93)"/><path class="cls-11" d="M20.17,46.62c-.14.17-.28.33-.41.5-11.14,14-8.32,32.09,3.51,46.94a48.59,48.59,0,0,1,1.91-18.84c.12-.34,1-1.35,1.07-1.74C27.58,67.52,29.76,48.08,20.17,46.62Z" transform="translate(-9.3 -13.93)"/><path class="cls-2" d="M20.27,46.64c6.07,10-6.5,28.18,3,47.42a48.59,48.59,0,0,1,1.91-18.84c.12-.34,1-1.35,1.07-1.74C27.58,67.54,29.75,48.23,20.27,46.64Z" transform="translate(-9.3 -13.93)"/><path class="cls-12" d="M20.28,46.64h0c7.81,5,6.21,15.56,3.56,24.54-2.73,9.29-3.6,13.26-.56,22.88-.94-7.47.62-13.08,2.21-20.19C27.66,64.1,29.48,51.4,20.28,46.64Z" transform="translate(-9.3 -13.93)"/><path class="cls-13" d="M37.93,68.06C37.72,57.59,32.42,49,20.26,46.63c9.22,4.74,7.41,17.46,5.22,27.24-3.48,15.55-3,24.41,12.91,34a61.51,61.51,0,0,1-3.51-20.15C34.72,82,38.06,74.67,37.93,68.06Z" transform="translate(-9.3 -13.93)"/><path class="cls-2" d="M37.93,68.06C37.72,57.59,32.42,49,20.26,46.63l0,0C25,47.7,28.66,52,29.8,58.77s-.66,13-2.09,27.38c-1.38,13.95,9.93,21.27,10.64,21.71l0,0h0a61.51,61.51,0,0,1-3.51-20.15C34.72,82,38.06,74.67,37.93,68.06Z" transform="translate(-9.3 -13.93)"/><path class="cls-12" d="M34.85,68.72c-.2-10.43-2.41-19.66-14.48-22.07H20.3l.08.05C32.23,50.08,33.55,59.45,33,69.88c-.27,5.66-.86,11.35-1.24,16.4-.71,9.14,1.21,16.24,6.6,21.61a61.51,61.51,0,0,1-3.51-20.15C34.72,82,35,75.32,34.85,68.72Z" transform="translate(-9.3 -13.93)"/><path class="cls-14" d="M47.23,64.31c-2.6-12.63-13.88-18.92-27-17.69C32.42,49,34.64,58.23,34.85,68.72c.18,8.88-.36,17.93.38,24.52,1.67,14.86,14.17,22.59,27.52,26.24A67.25,67.25,0,0,1,51.29,97.1C48,87,49.17,73.71,47.23,64.31Z" transform="translate(-9.3 -13.93)"/><path class="cls-2" d="M47.23,64.31c-2.6-12.63-13.88-18.92-27-17.69l.58.11C33,47.35,38.14,55.93,39.09,68c.4,5.07.68,11.77,1.27,20.9,1.54,24,22.39,30.63,22.39,30.63A67.25,67.25,0,0,1,51.29,97.1C48,87,49.17,73.71,47.23,64.31Z" transform="translate(-9.3 -13.93)"/><path class="cls-12" d="M43.93,65.63c-2.58-12.5-10.42-20.08-23.34-19l-.3.06h.06c13.14-.2,20.49,8,22.15,20.71,1.21,9.25,2.41,21,4.82,31.07,2.64,11.06,8.61,16.74,15.43,21A67.25,67.25,0,0,1,51.29,97.1C48,87,45.87,75,43.93,65.63Z" transform="translate(-9.3 -13.93)"/><path class="cls-15" d="M73.46,104.55h0c-5.76-9.68-8.41-24.36-13.24-36.43-6.71-16.75-19-27.21-40-21.49,13.16-1.23,21.14,6.38,23.74,19s5.59,30.21,11.35,41.27c6.6,12.66,19.07,17.64,34.87,17.52C86.3,121,78.43,114,73.46,104.55Z" transform="translate(-9.3 -13.93)"/><path class="cls-2" d="M73.46,104.55h0c-5.76-9.68-8.41-24.36-13.24-36.43-6.71-16.75-19-27.21-40-21.49l.41,0c11.55-2.7,21.88,2.49,26.73,13.11,10.11,22.1,9.06,58.73,42.82,64.73C86.3,121,78.43,114,73.46,104.55Z" transform="translate(-9.3 -13.93)"/><path class="cls-12" d="M73.46,104.55h0C67.7,94.86,62.86,81.93,58,69.87,51.33,53.15,41.3,40.94,20.31,46.58l0,0,.25,0c21.19-4.14,30.36,8.68,35.92,25.75C59.73,82.43,63,93.09,66.85,102.13c4.94,11.56,14.34,19.43,23.3,22.29C86.3,121,78.43,114,73.46,104.55Z" transform="translate(-9.3 -13.93)"/><path class="cls-16" d="M95.44,102.66c-10.2-11.24-16.14-28.31-25-42.24C58.31,41.21,37.31,35.1,20.16,46.62,41.25,40.88,51.31,53.11,58,69.87,63.47,83.46,68.92,98.13,75.69,108c11.86,17.37,26.79,18.86,45.89,13.68C112.41,118.35,101.24,110.37,95.44,102.66Z" transform="translate(-9.3 -13.93)"/><path class="cls-2" d="M95.44,102.66C85.24,91.42,76.88,75.89,68.06,62,55.89,42.75,37.31,35.1,20.16,46.62l-.16.17.39-.23C35.21,40.31,50,44.51,59.45,60.22c16.76,27.78,25.46,64,62.13,61.5C112.41,118.35,101.24,110.37,95.44,102.66Z" transform="translate(-9.3 -13.93)"/><path class="cls-12" d="M95.44,102.66C85.24,91.42,76.88,75.89,68.06,62,55.93,42.81,37.42,35.15,20.31,46.53l-.08.07h.06C38,36.15,56.11,44.86,67.13,64.69c7.61,13.67,14.71,28.76,23.57,40.36,6.63,8.67,19.54,15.85,30.88,16.67C112.41,118.35,101.24,110.37,95.44,102.66Z" transform="translate(-9.3 -13.93)"/><path class="cls-17" d="M71.89,48.37c-13.6-13.18-38.53-17.63-51.72-1.75C37.32,35.1,55.9,42.76,68.06,62c8.37,13.22,16.32,27.88,25.83,38.95,11.65,13.57,29,21.69,53.4,13.18C108.89,101.32,98.17,73.81,71.89,48.37Z" transform="translate(-9.3 -13.93)"/><path class="cls-2" d="M71.89,48.37c-13.6-13.18-38.53-17.63-51.72-1.75C31.82,36,49,36.33,60.3,44.9a72.82,72.82,0,0,1,6,5.12c25.49,24.07,33.7,63.61,80.95,64.07C108.89,101.32,98.17,73.81,71.89,48.37Z" transform="translate(-9.3 -13.93)"/><path class="cls-18" d="M88.44,93.22h0a115.8,115.8,0,0,1-21.3-1.13h0c-10.68-1.55-22.21-4.76-31.58-10.18h0a45.44,45.44,0,0,1-9.87-7.49h0C19.13,67.71,16,59.2,18.44,48.89c-9.57,13.76-6.51,30.94,4.83,45.17,0,0-1.13-10.08,1.92-18.85C22,89.93,22.94,98.56,38.39,107.89a61.51,61.51,0,0,1-3.51-20.15c0,2,.16,3.82.35,5.5,1.67,14.86,14.17,22.59,27.52,26.24A67.3,67.3,0,0,1,51.29,97.11a65.65,65.65,0,0,0,4,9.79c6.6,12.66,19.07,17.64,34.87,17.52C86.3,121,78.43,114,73.46,104.55c11.84,19.88,26.68,23,48.12,17.17-9.17-3.37-20.34-11.35-26.14-19.06-.21-.22-.41-.46-.62-.69,11.64,12.92,28.72,20.41,52.47,12.12-17-5.66-28.6-14.22-38.51-24.21A77.62,77.62,0,0,1,88.44,93.22Z" transform="translate(-9.3 -13.93)"/></g></svg>