<svg xmlns="http://www.w3.org/2000/svg" xmlns:xlink="http://www.w3.org/1999/xlink" width="33.623" height="26.815" viewBox="0 0 33.623 26.815"><defs><style>.a{fill:#261c00;}.b{fill:#ffc215;}.c,.d{opacity:0.46;}.c{fill:url(#a);}.d{fill:url(#b);}.e{fill:#2e8cea;}.f{fill:none;stroke:#fff;stroke-width:1.091px;}.g{fill:#d34836;fill-rule:evenodd;}.h{fill:#ff864e;}</style><linearGradient id="a" x1="17.148" y1="-3.409" x2="16.347" y2="-3.538" gradientUnits="objectBoundingBox"><stop offset="0" stop-color="#ff8915"/><stop offset="1" stop-color="#ff8915" stop-opacity="0"/></linearGradient><linearGradient id="b" x1="11.69" y1="-3.174" x2="11.914" y2="-3.622" gradientUnits="objectBoundingBox"><stop offset="0" stop-color="#fff306"/><stop offset="1" stop-color="#fff306" stop-opacity="0"/></linearGradient></defs><g transform="translate(-20.986 -979.932)"><g transform="translate(20.986 979.932)"><rect class="a" width="3.712" height="6.806" rx="1.856" transform="translate(28.679 20.01)"/><rect class="a" width="3.712" height="6.806" rx="1.856" transform="translate(1.057 20.01)"/><path class="b" d="M1303.187,455.6c-7.851,0-14.21,6.653-14.21,14.849a15.223,15.223,0,0,0,2.4,8.253H1315a15.223,15.223,0,0,0,2.4-8.253c0-8.2-6.367-14.849-14.218-14.849Z" transform="translate(-1286.38 -455.603)"/><rect class="b" width="33.623" height="11.999" rx="6" transform="translate(0 11.103)"/><path class="c" d="M1301.3,455.6a14.352,14.352,0,0,0-13.81,11.357,4.479,4.479,0,0,0-2.994,4.242v3.005a4.484,4.484,0,0,0,4.5,4.5h6.75l9.214-22.6a13.638,13.638,0,0,0-3.657-.5Z" transform="translate(-1284.495 -455.603)"/><path class="d" d="M1304.288,455.6a14.15,14.15,0,0,0-12.694,8.187l19.875,14.915h5.137a4.484,4.484,0,0,0,4.5-4.5V471.2a4.483,4.483,0,0,0-2.994-4.231,14.363,14.363,0,0,0-13.821-11.368Z" transform="translate(-1287.481 -455.603)"/><path class="e" d="M1305.721,460.109c-4.88,0-9.03,3.453-10.58,8.275H1316.3C1314.749,463.562,1310.6,460.109,1305.721,460.109Z" transform="translate(-1288.974 -457.499)"/><path class="f" d="M6.558,0A3.279,3.279,0,0,1,3.279,3.279,3.279,3.279,0,0,1,0,0H0" transform="translate(15.564 10.874) rotate(180)"/><path class="g" d="M1764.217,321.308a1.812,1.812,0,1,1-1.812-1.812A1.812,1.812,0,0,1,1764.217,321.308Z" transform="translate(-1757.781 -305.837)"/><path class="g" d="M1764.217,321.308a1.812,1.812,0,1,1-1.812-1.812A1.812,1.812,0,0,1,1764.217,321.308Z" transform="translate(-1733.157 -305.837)"/><rect class="h" width="15.732" height="5.833" rx="2.917" transform="translate(8.944 14.689)"/></g></g></svg>