<svg xmlns="http://www.w3.org/2000/svg" width="27.653" height="16.379" viewBox="0 0 27.653 16.379"><defs><style>.a{fill:#cad1d8;stroke:#576d7e;stroke-linecap:round;stroke-linejoin:round;}.a,.b,.d{fill-rule:evenodd;}.b{fill:#34485c;}.c{fill:#576d7e;}.d{fill:#2b4255;}</style></defs><g transform="translate(-157 -1601.363)"><path class="a" d="M157.5,1606.859v7.173m2.9-3.586h-2.728" transform="translate(0 0.124)"/><g transform="translate(172.865 1601.863) rotate(90)"><path class="a" d="M0,0V10.247M2.9,5.123H.173" transform="translate(0 0)"/></g><path class="b" d="M160,1612.557v-6.148h2.049v-2.049H172.3v2.049h4.1l2.049,3.586h3.074v-3.586h3.074v10.247h-3.074v-3.586h-3.074v4.611H164.1l-1.025-2.049H160Z" transform="translate(0.062 0.061)"/><path class="c" d="M165.432,1615.359l.548,2.05h1.059l-.548-2.05Zm2.049,0,.548,2.05h1.059l-.548-2.05Zm2.049,0,.548,2.05h1.059l-.548-2.05Zm2.049,0,.548,2.05h1.059l-.548-2.05Zm2.049,0,.548,2.05h1.059l-.548-2.05Zm2.049,0,.548,2.05h1.059l-.548-2.05Z" transform="translate(0.196 0.333)"/><path class="d" d="M162,1606.409v-2.049h10.247v2.049Z" transform="translate(0.111 0.061)"/></g></svg>