<svg xmlns="http://www.w3.org/2000/svg" width="10.093" height="10.093" viewBox="0 0 10.093 10.093"><defs><style>.a{fill:#f48b78;}.b{fill:#dd5142;}</style></defs><g transform="translate(-16 -16)"><path class="a" d="M21.046,16a5.046,5.046,0,1,0,5.046,5.046A5.046,5.046,0,0,0,21.046,16Zm0,7.58a.294.294,0,1,1,.294-.294A.294.294,0,0,1,21.046,23.58Zm.294-1.195a.294.294,0,1,1-.589,0v-3.8a.294.294,0,1,1,.589,0Z"/><path class="b" d="M242.294,125.053a.294.294,0,0,0-.294.294v3.8a.294.294,0,0,0,.589,0v-3.8A.294.294,0,0,0,242.294,125.053Z" transform="translate(-221.248 -106.76)"/><circle class="b" cx="0.294" cy="0.294" r="0.294" transform="translate(20.752 22.991)"/></g></svg>