<svg xmlns="http://www.w3.org/2000/svg" xmlns:xlink="http://www.w3.org/1999/xlink" width="39.666" height="39.666" viewBox="0 0 39.666 39.666"><defs><clipPath id="a"><path d="M0-47.5H39.666V-7.834H0Z" transform="translate(0 47.5)"/></clipPath></defs><g transform="translate(0 0)"><g transform="translate(0 0)"><g clip-path="url(#a)"><g transform="translate(26.096 17.746)"><path d="M-1.21-1.432C-1.594-.879-1.99-.38-2.364.09-3.393,1.384-4.206,2.408-4.206,3.841A2.807,2.807,0,0,0-1.074,6.973,2.166,2.166,0,0,0,.8,6.091a4.651,4.651,0,0,0,.272-4.007A11.449,11.449,0,0,0-1.21-1.432M-1.074,9.06c-2.523,0-5.219-1.372-5.219-5.219,0-2.163,1.167-3.631,2.3-5.05.442-.555.888-1.117,1.293-1.739C-4.328-4.429-6.114-5.553-7.338-5.553V-7.641c1.692,0,3.76,1.183,5.618,2.787a10.593,10.593,0,0,0,.645-3.831H1.013A12.279,12.279,0,0,1-.111-3.31,14.575,14.575,0,0,1,3.047,1.423a6.664,6.664,0,0,1-.558,5.889A4.257,4.257,0,0,1-1.074,9.06" transform="translate(7.338 8.685)" fill="#939598"/></g><g transform="translate(6.526 11.482)"><path d="M-3.3,0H-16.088a3.865,3.865,0,0,0-3.9,4.175l1.222,18.789c.149,2.306,1.853,4.175,3.8,4.175H-4.421c1.951,0,3.655-1.87,3.8-4.175L.605,4.175A3.865,3.865,0,0,0-3.3,0" transform="translate(20.001)" fill="#ffac33"/></g><g transform="translate(4.175 35.491)"><path d="M-4.741,0H-27.706A1.044,1.044,0,0,0-28.75,1.044V3.132H-3.7V1.044A1.043,1.043,0,0,0-4.741,0" transform="translate(28.75)" fill="#a7a9ac"/></g><g transform="translate(32.359 2.087)"><path d="M-.206-1.855A1.044,1.044,0,0,1-1.25-2.9V-6.277l2.2-4.4a1.045,1.045,0,0,1,1.4-.468,1.045,1.045,0,0,1,.468,1.4L.838-5.785V-2.9A1.044,1.044,0,0,1-.206-1.855" transform="translate(1.25 11.251)" fill="#ffac33"/></g><g transform="translate(30.272 9.395)"><path d="M-1.134-1.649h-.811a2.064,2.064,0,0,0,.289-1.044V-6.868A2.079,2.079,0,0,0-2.7-8.667v-.289A1.044,1.044,0,0,0-3.743-10,1.044,1.044,0,0,0-4.787-8.956v.289a2.079,2.079,0,0,0-1.044,1.8v4.175a2.064,2.064,0,0,0,.289,1.044h-.811a.522.522,0,0,0-.522.522.522.522,0,0,0,.522.522h5.219a.522.522,0,0,0,.522-.522.522.522,0,0,0-.522-.522" transform="translate(6.875 10)" fill="#be1931"/></g><g transform="translate(27.14 14.614)"><path d="M0-.206A1.044,1.044,0,0,0,1.044.838H6.263A1.044,1.044,0,0,0,7.307-.206,1.044,1.044,0,0,0,6.263-1.25H1.044A1.044,1.044,0,0,0,0-.206" transform="translate(0 1.25)" fill="#939598"/></g><g transform="translate(4.175 1.044)"><path d="M-4.948-2.886A4.176,4.176,0,0,1-9.123,1.289h-16.7A4.176,4.176,0,0,1-30-2.886V-13.325A4.176,4.176,0,0,1-25.825-17.5h16.7a4.176,4.176,0,0,1,4.175,4.175Z" transform="translate(30 17.5)" fill="#e6e7e8"/></g><g transform="translate(6.263 3.132)"><path d="M-4.123-2.474A2.088,2.088,0,0,1-6.211-.386h-16.7A2.088,2.088,0,0,1-25-2.474V-12.912A2.088,2.088,0,0,1-22.912-15h16.7a2.088,2.088,0,0,1,2.088,2.088Z" transform="translate(25 15)" fill="#58595b"/></g><path d="M26.895-36.868H17.5V-40h9.395Z" transform="translate(-2.886 46.263)" fill="#a7a9ac"/></g></g></g></svg>