<svg xmlns="http://www.w3.org/2000/svg" xmlns:xlink="http://www.w3.org/1999/xlink" width="18" height="18" viewBox="0 0 18 18"><defs><style>.a{clip-path:url(#a);}.b{fill:#bcbec0;}.c{fill:#ffac33;}</style><clipPath id="a"><path d="M0-47.5H18v18H0Z" transform="translate(0 47.5)"/></clipPath></defs><g transform="translate(0 47.5)"><g transform="translate(0 -47.5)"><g class="a"><g transform="translate(4.434 0.474)"><path class="b" d="M-7.483,0a4.735,4.735,0,0,0-4.566,3.492l1.826.5a2.841,2.841,0,0,1,2.74-2.1A2.843,2.843,0,0,1-4.641,4.737V9.474h1.895V4.737A4.737,4.737,0,0,0-7.483,0" transform="translate(12.049)"/></g><g transform="translate(3.316 9)"><path class="c" d="M-18.632-10.868a1.9,1.9,0,0,1-1.895,1.895h-7.579A1.9,1.9,0,0,1-30-10.868v-4.737A1.9,1.9,0,0,1-28.105-17.5h7.579a1.9,1.9,0,0,1,1.895,1.895Z" transform="translate(30 17.5)"/></g></g></g></g></svg>