<svg xmlns="http://www.w3.org/2000/svg" width="31.801" height="32.801" viewBox="0 0 31.801 32.801"><defs><style>.a{fill:#4c5665;}.a,.b,.c,.d,.e,.f{fill-rule:evenodd;}.b{fill:#dedeca;}.c{fill:#414a55;}.d{fill:#b85756;}.e{fill:#fffffe;}.f{fill:#f0cb83;}</style></defs><g transform="translate(0 0)"><g transform="translate(0 0)"><path class="a" d="M31.8,16.4A16.156,16.156,0,0,1,15.9,32.8,16.156,16.156,0,0,1,0,16.4,16.156,16.156,0,0,1,15.9,0,16.156,16.156,0,0,1,31.8,16.4"/><path class="b" d="M47.627,40.19a.917.917,0,0,1,.52-.379,1.064,1.064,0,0,1,.716.06l1.3.6a.882.882,0,0,1,.483.568.988.988,0,0,1-.114.81,1.106,1.106,0,0,1-.63.517.9.9,0,0,1-.74-.129l-1.18-.816a1.033,1.033,0,0,1-.412-.582.8.8,0,0,1,.053-.647" transform="translate(-23.993 -19.39)"/><path class="b" d="M13.554,40.4a.968.968,0,0,1-.344,1.235l-1.17.831a1.015,1.015,0,0,1-1.022-1.754l1.3-.616a.96.96,0,0,1,1.24.3" transform="translate(-5.306 -19.495)"/><path class="b" d="M10.785,30.825a.957.957,0,0,1-.909.895l-1.429.132a1.015,1.015,0,0,1-.022-2.03l1.43.116a.96.96,0,0,1,.93.887" transform="translate(-3.625 -14.536)"/><path class="b" d="M13.42,20.643a.914.914,0,0,1-.52.379,1.058,1.058,0,0,1-.716-.06l-1.3-.6A.883.883,0,0,1,10.4,19.8a.988.988,0,0,1,.114-.81,1.1,1.1,0,0,1,.63-.516.9.9,0,0,1,.74.129l1.18.817a1.03,1.03,0,0,1,.413.582.8.8,0,0,1-.054.646" transform="translate(-5.227 -8.989)"/><path class="b" d="M20.782,13.188a.968.968,0,0,1-1.235-.343l-.831-1.17a1.015,1.015,0,0,1,1.754-1.022l.616,1.3a.96.96,0,0,1-.3,1.239" transform="translate(-9.36 -4.947)"/><path class="b" d="M30.926,10.42a.957.957,0,0,1-.895-.909L29.9,8.082a1.015,1.015,0,0,1,2.03-.023l-.116,1.43a.961.961,0,0,1-.887.93" transform="translate(-15.071 -3.447)"/><path class="b" d="M40.556,13.055a.917.917,0,0,1-.38-.52,1.06,1.06,0,0,1,.061-.716l.6-1.3a.882.882,0,0,1,.568-.482.985.985,0,0,1,.809.114,1.107,1.107,0,0,1,.517.631.9.9,0,0,1-.129.74l-.816,1.18a1.036,1.036,0,0,1-.582.413.8.8,0,0,1-.646-.054" transform="translate(-20.249 -4.87)"/><path class="b" d="M47.506,20.417a.968.968,0,0,1,.343-1.234l1.17-.831a1.015,1.015,0,0,1,1.022,1.754l-1.3.616a.96.96,0,0,1-1.24-.3" transform="translate(-23.925 -8.867)"/><path class="b" d="M50.085,30.56a.956.956,0,0,1,.909-.894l1.428-.133a1.015,1.015,0,0,1,.023,2.03l-1.43-.116a.959.959,0,0,1-.93-.887" transform="translate(-25.415 -14.395)"/><path class="c" d="M29.563,31.689c-.057,0-.111-.013-.168-.017a2.548,2.548,0,0,1-2.378-2.377c0-.057-.017-.111-.017-.169a2.563,2.563,0,0,1,2.563-2.563c.057,0,.111.013.168.017l1.593-.993L33.708,24.1a.641.641,0,0,1,.883.883l-2.482,3.977c0,.056.017.11.017.168a2.563,2.563,0,0,1-2.563,2.563" transform="translate(-13.713 -11.701)"/><path class="d" d="M34.5,22.189a.639.639,0,0,0-.791-.091l-2.385,1.489-1.593.993h0c-.056,0-.11-.017-.168-.017A2.563,2.563,0,0,0,27,27.126c0,.058.013.112.017.169a2.548,2.548,0,0,0,2.378,2.377c.056,0,.11.017.168.017a2.563,2.563,0,0,0,2.563-2.563c0-.057-.013-.111-.017-.168L34.59,22.98a.635.635,0,0,0-.091-.791" transform="translate(-13.713 -10.725)"/><path class="e" d="M32.125,29.562A2.563,2.563,0,1,1,29.562,27a2.563,2.563,0,0,1,2.563,2.563" transform="translate(-13.662 -13.162)"/><path class="f" d="M32.2,46.563A1.538,1.538,0,0,1,30.663,48.1H25.538A1.538,1.538,0,0,1,24,46.563V45.538A1.538,1.538,0,0,1,25.538,44h5.125A1.538,1.538,0,0,1,32.2,45.538v1.025" transform="translate(-12.2 -21.449)"/></g></g></svg>